<?xml version="1.0" encoding="windows-1252" standalone="no"?>
<svg xmlns="http://www.w3.org/2000/svg" xmlns:xlink="http://www.w3.org/1999/xlink" contentStyleType="text/css" height="291px" preserveAspectRatio="none" style="width:283px;height:291px;background:#FFFFFF;" version="1.1" viewBox="0 0 283 291" width="283px" zoomAndPan="magnify"><defs/><g><rect fill="#FFFFFF" height="184.7969" style="stroke:#181818;stroke-width:1.0;" width="10" x="72.5" y="46.2969"/><rect fill="#FFFFFF" height="110.5313" style="stroke:#181818;stroke-width:1.0;" width="10" x="204.5" y="67.4297"/><line style="stroke:#181818;stroke-width:0.5;stroke-dasharray:5.0,5.0;" x1="77" x2="77" y1="36.2969" y2="256.0938"/><line style="stroke:#181818;stroke-width:0.5;stroke-dasharray:5.0,5.0;" x1="209" x2="209" y1="36.2969" y2="256.0938"/><rect fill="#E2E2F0" height="30.2969" rx="2.5" ry="2.5" style="stroke:#181818;stroke-width:0.5;" width="55" x="50" y="5"/><text fill="#000000" font-family="sans-serif" font-size="14" lengthAdjust="spacing" textLength="41" x="57" y="24.9951">client</text><rect fill="#E2E2F0" height="30.2969" rx="2.5" ry="2.5" style="stroke:#181818;stroke-width:0.5;" width="55" x="50" y="255.0938"/><text fill="#000000" font-family="sans-serif" font-size="14" lengthAdjust="spacing" textLength="41" x="57" y="275.0889">client</text><rect fill="#E2E2F0" height="30.2969" rx="2.5" ry="2.5" style="stroke:#181818;stroke-width:0.5;" width="59" x="180" y="5"/><text fill="#000000" font-family="sans-serif" font-size="14" lengthAdjust="spacing" textLength="45" x="187" y="24.9951">server</text><rect fill="#E2E2F0" height="30.2969" rx="2.5" ry="2.5" style="stroke:#181818;stroke-width:0.5;" width="59" x="180" y="255.0938"/><text fill="#000000" font-family="sans-serif" font-size="14" lengthAdjust="spacing" textLength="45" x="187" y="275.0889">server</text><rect fill="#FFFFFF" height="184.7969" style="stroke:#181818;stroke-width:1.0;" width="10" x="72.5" y="46.2969"/><rect fill="#FFFFFF" height="110.5313" style="stroke:#181818;stroke-width:1.0;" width="10" x="204.5" y="67.4297"/><polygon fill="#181818" points="192.5,63.4297,202.5,67.4297,192.5,71.4297,196.5,67.4297" style="stroke:#181818;stroke-width:1.0;"/><line style="stroke:#181818;stroke-width:1.0;stroke-dasharray:2.0,2.0;" x1="82.5" x2="198.5" y1="67.4297" y2="67.4297"/><text fill="#000000" font-family="sans-serif" font-size="13" lengthAdjust="spacing" textLength="103" x="89.5" y="62.3638">sending request</text><polygon fill="#FEFFDD" points="15,80.4297,140,80.4297,150,99.4297,140,118.4297,15,118.4297,5,99.4297,15,80.4297" style="stroke:#181818;stroke-width:0.5;"/><text fill="#000000" font-family="sans-serif" font-size="13" lengthAdjust="spacing" textLength="109" x="17" y="96.4966">continue working</text><text fill="#000000" font-family="sans-serif" font-size="13" lengthAdjust="spacing" textLength="121" x="17" y="111.6294">(without response)</text><polygon fill="#FEFFDD" points="146,128.6953,272,128.6953,282,139.6953,272,151.6953,146,151.6953,136,139.6953,146,128.6953" style="stroke:#181818;stroke-width:0.5;"/><text fill="#000000" font-family="sans-serif" font-size="13" lengthAdjust="spacing" textLength="122" x="148" y="144.7622">processing request</text><polygon fill="#181818" points="93.5,173.9609,83.5,177.9609,93.5,181.9609,89.5,177.9609" style="stroke:#181818;stroke-width:1.0;"/><line style="stroke:#181818;stroke-width:1.0;stroke-dasharray:2.0,2.0;" x1="87.5" x2="208.5" y1="177.9609" y2="177.9609"/><text fill="#000000" font-family="sans-serif" font-size="13" lengthAdjust="spacing" textLength="59" x="99.5" y="172.895">response</text><polygon fill="#FEFFDD" points="16,190.9609,138,190.9609,148,201.9609,138,213.9609,16,213.9609,6,201.9609,16,190.9609" style="stroke:#181818;stroke-width:0.5;"/><text fill="#000000" font-family="sans-serif" font-size="13" lengthAdjust="spacing" textLength="118" x="18" y="207.0278">response received</text><line style="stroke:#181818;stroke-width:1.0;" x1="82.5" x2="124.5" y1="230.0938" y2="230.0938"/><line style="stroke:#181818;stroke-width:1.0;" x1="124.5" x2="124.5" y1="230.0938" y2="243.0938"/><line style="stroke:#181818;stroke-width:1.0;" x1="77.5" x2="124.5" y1="243.0938" y2="243.0938"/><polygon fill="#181818" points="87.5,239.0938,77.5,243.0938,87.5,247.0938,83.5,243.0938" style="stroke:#181818;stroke-width:1.0;"/><!--SRC=[ZKz13iCW3Bld5Jbk1pw0fhva5mJH6dLAEaZfzyU4K3dk52Uo7Jj4ungCCBwPn03wHESMB9GhPVGDI69vOQRFGSKW355d0AoYRTCVk-izHXLZEGXFpLiJF-LsigrwMBCfkqgX-wphLXxth95AcT-DJ0_dhap311Bz4sVG6uZ4bTBLT1dT9wT- -G80]--></g></svg>