<?xml version="1.0" encoding="us-ascii" standalone="no"?><svg xmlns="http://www.w3.org/2000/svg" xmlns:xlink="http://www.w3.org/1999/xlink" contentStyleType="text/css" height="343px" preserveAspectRatio="none" style="width:309px;height:343px;background:#FFFFFF;" version="1.1" viewBox="0 0 309 343" width="309px" zoomAndPan="magnify"><defs/><g><!--cluster Bibliothek--><g id="cluster_Bibliothek"><path d="M33.5,6 L116.5,6 A3.75,3.75 0 0 1 119,8.5 L126,28.2969 L154.5,28.2969 A2.5,2.5 0 0 1 157,30.7969 L157,210.5 A2.5,2.5 0 0 1 154.5,213 L33.5,213 A2.5,2.5 0 0 1 31,210.5 L31,8.5 A2.5,2.5 0 0 1 33.5,6 " fill="none" style="stroke:#000000;stroke-width:1.5;"/><line style="stroke:#000000;stroke-width:1.5;" x1="31" x2="126" y1="28.2969" y2="28.2969"/><text fill="#000000" font-family="sans-serif" font-size="14" font-weight="bold" lengthAdjust="spacing" textLength="82" x="35" y="20.9951">Bibliothek</text></g><!--cluster Bibliotheksverwender--><g id="cluster_Bibliotheksverwender"><path d="M8.5,237 L183.5,237 A3.75,3.75 0 0 1 186,239.5 L193,259.2969 L299.5,259.2969 A2.5,2.5 0 0 1 302,261.7969 L302,333.5 A2.5,2.5 0 0 1 299.5,336 L8.5,336 A2.5,2.5 0 0 1 6,333.5 L6,239.5 A2.5,2.5 0 0 1 8.5,237 " fill="none" style="stroke:#000000;stroke-width:1.5;"/><line style="stroke:#000000;stroke-width:1.5;" x1="6" x2="193" y1="259.2969" y2="259.2969"/><text fill="#000000" font-family="sans-serif" font-size="14" font-weight="bold" lengthAdjust="spacing" textLength="174" x="10" y="251.9951">Bibliotheksverwender</text></g><!--class Basistyp--><g id="elem_Basistyp"><rect fill="#F1F1F1" height="48" id="Basistyp" rx="2.5" ry="2.5" style="stroke:#181818;stroke-width:0.5;" width="93" x="47.5" y="41"/><ellipse cx="62.5" cy="57" fill="#ADD1B2" rx="11" ry="11" style="stroke:#181818;stroke-width:1.0;"/><path d="M64.8438,52.6719 C63.9063,52.2344 63.3125,52.0938 62.4375,52.0938 C59.8125,52.0938 57.8125,54.1719 57.8125,56.8906 L57.8125,58.0156 C57.8125,60.5938 59.9219,62.4844 62.8125,62.4844 C64.0313,62.4844 65.1875,62.1875 65.9375,61.6406 C66.5156,61.2344 66.8438,60.7813 66.8438,60.3906 C66.8438,59.9375 66.4531,59.5469 65.9844,59.5469 C65.7656,59.5469 65.5625,59.625 65.375,59.8125 C64.9219,60.2969 64.9219,60.2969 64.7344,60.3906 C64.3125,60.6563 63.625,60.7813 62.8594,60.7813 C60.8125,60.7813 59.5156,59.6875 59.5156,57.9844 L59.5156,56.8906 C59.5156,55.1094 60.7656,53.7969 62.5,53.7969 C63.0781,53.7969 63.6875,53.9531 64.1563,54.2031 C64.6406,54.4844 64.8125,54.7031 64.9063,55.1094 C64.9688,55.5156 65,55.6406 65.1406,55.7656 C65.2813,55.9063 65.5156,56.0156 65.7344,56.0156 C66,56.0156 66.2656,55.875 66.4375,55.6563 C66.5469,55.5 66.5781,55.3125 66.5781,54.8906 L66.5781,53.4688 C66.5781,53.0313 66.5625,52.9063 66.4688,52.75 C66.3125,52.4844 66.0313,52.3438 65.7344,52.3438 C65.4375,52.3438 65.2344,52.4375 65.0156,52.75 L64.8438,52.6719 Z " fill="#000000"/><text fill="#000000" font-family="sans-serif" font-size="14" lengthAdjust="spacing" textLength="61" x="76.5" y="61.8467">Basistyp</text><line style="stroke:#181818;stroke-width:0.5;" x1="48.5" x2="139.5" y1="73" y2="73"/><line style="stroke:#181818;stroke-width:0.5;" x1="48.5" x2="139.5" y1="81" y2="81"/></g><!--class Aufbau--><g id="elem_Aufbau"><rect fill="#F1F1F1" height="48" id="Aufbau" rx="2.5" ry="2.5" style="stroke:#181818;stroke-width:0.5;" width="82" x="50" y="149"/><ellipse cx="65" cy="165" fill="#ADD1B2" rx="11" ry="11" style="stroke:#181818;stroke-width:1.0;"/><path d="M67.3438,160.6719 C66.4063,160.2344 65.8125,160.0938 64.9375,160.0938 C62.3125,160.0938 60.3125,162.1719 60.3125,164.8906 L60.3125,166.0156 C60.3125,168.5938 62.4219,170.4844 65.3125,170.4844 C66.5313,170.4844 67.6875,170.1875 68.4375,169.6406 C69.0156,169.2344 69.3438,168.7813 69.3438,168.3906 C69.3438,167.9375 68.9531,167.5469 68.4844,167.5469 C68.2656,167.5469 68.0625,167.625 67.875,167.8125 C67.4219,168.2969 67.4219,168.2969 67.2344,168.3906 C66.8125,168.6563 66.125,168.7813 65.3594,168.7813 C63.3125,168.7813 62.0156,167.6875 62.0156,165.9844 L62.0156,164.8906 C62.0156,163.1094 63.2656,161.7969 65,161.7969 C65.5781,161.7969 66.1875,161.9531 66.6563,162.2031 C67.1406,162.4844 67.3125,162.7031 67.4063,163.1094 C67.4688,163.5156 67.5,163.6406 67.6406,163.7656 C67.7813,163.9063 68.0156,164.0156 68.2344,164.0156 C68.5,164.0156 68.7656,163.875 68.9375,163.6563 C69.0469,163.5 69.0781,163.3125 69.0781,162.8906 L69.0781,161.4688 C69.0781,161.0313 69.0625,160.9063 68.9688,160.75 C68.8125,160.4844 68.5313,160.3438 68.2344,160.3438 C67.9375,160.3438 67.7344,160.4375 67.5156,160.75 L67.3438,160.6719 Z " fill="#000000"/><text fill="#000000" font-family="sans-serif" font-size="14" lengthAdjust="spacing" textLength="50" x="79" y="169.8467">Aufbau</text><line style="stroke:#181818;stroke-width:0.5;" x1="51" x2="131" y1="181" y2="181"/><line style="stroke:#181818;stroke-width:0.5;" x1="51" x2="131" y1="189" y2="189"/></g><!--class Erweiterung--><g id="elem_Erweiterung"><rect fill="#F1F1F1" height="48" id="Erweiterung" rx="2.5" ry="2.5" style="stroke:#181818;stroke-width:0.5;" width="119" x="166.5" y="272"/><ellipse cx="181.5" cy="288" fill="#ADD1B2" rx="11" ry="11" style="stroke:#181818;stroke-width:1.0;"/><path d="M183.8438,283.6719 C182.9063,283.2344 182.3125,283.0938 181.4375,283.0938 C178.8125,283.0938 176.8125,285.1719 176.8125,287.8906 L176.8125,289.0156 C176.8125,291.5938 178.9219,293.4844 181.8125,293.4844 C183.0313,293.4844 184.1875,293.1875 184.9375,292.6406 C185.5156,292.2344 185.8438,291.7813 185.8438,291.3906 C185.8438,290.9375 185.4531,290.5469 184.9844,290.5469 C184.7656,290.5469 184.5625,290.625 184.375,290.8125 C183.9219,291.2969 183.9219,291.2969 183.7344,291.3906 C183.3125,291.6563 182.625,291.7813 181.8594,291.7813 C179.8125,291.7813 178.5156,290.6875 178.5156,288.9844 L178.5156,287.8906 C178.5156,286.1094 179.7656,284.7969 181.5,284.7969 C182.0781,284.7969 182.6875,284.9531 183.1563,285.2031 C183.6406,285.4844 183.8125,285.7031 183.9063,286.1094 C183.9688,286.5156 184,286.6406 184.1406,286.7656 C184.2813,286.9063 184.5156,287.0156 184.7344,287.0156 C185,287.0156 185.2656,286.875 185.4375,286.6563 C185.5469,286.5 185.5781,286.3125 185.5781,285.8906 L185.5781,284.4688 C185.5781,284.0313 185.5625,283.9063 185.4688,283.75 C185.3125,283.4844 185.0313,283.3438 184.7344,283.3438 C184.4375,283.3438 184.2344,283.4375 184.0156,283.75 L183.8438,283.6719 Z " fill="#000000"/><text fill="#000000" font-family="sans-serif" font-size="14" lengthAdjust="spacing" textLength="87" x="195.5" y="292.8467">Erweiterung</text><line style="stroke:#181818;stroke-width:0.5;" x1="167.5" x2="284.5" y1="304" y2="304"/><line style="stroke:#181818;stroke-width:0.5;" x1="167.5" x2="284.5" y1="312" y2="312"/></g><!--class Anpassung--><g id="elem_Anpassung"><rect fill="#F1F1F1" height="48" id="Anpassung" rx="2.5" ry="2.5" style="stroke:#181818;stroke-width:0.5;" width="109" x="22.5" y="272"/><ellipse cx="37.5" cy="288" fill="#ADD1B2" rx="11" ry="11" style="stroke:#181818;stroke-width:1.0;"/><path d="M39.8438,283.6719 C38.9063,283.2344 38.3125,283.0938 37.4375,283.0938 C34.8125,283.0938 32.8125,285.1719 32.8125,287.8906 L32.8125,289.0156 C32.8125,291.5938 34.9219,293.4844 37.8125,293.4844 C39.0313,293.4844 40.1875,293.1875 40.9375,292.6406 C41.5156,292.2344 41.8438,291.7813 41.8438,291.3906 C41.8438,290.9375 41.4531,290.5469 40.9844,290.5469 C40.7656,290.5469 40.5625,290.625 40.375,290.8125 C39.9219,291.2969 39.9219,291.2969 39.7344,291.3906 C39.3125,291.6563 38.625,291.7813 37.8594,291.7813 C35.8125,291.7813 34.5156,290.6875 34.5156,288.9844 L34.5156,287.8906 C34.5156,286.1094 35.7656,284.7969 37.5,284.7969 C38.0781,284.7969 38.6875,284.9531 39.1563,285.2031 C39.6406,285.4844 39.8125,285.7031 39.9063,286.1094 C39.9688,286.5156 40,286.6406 40.1406,286.7656 C40.2813,286.9063 40.5156,287.0156 40.7344,287.0156 C41,287.0156 41.2656,286.875 41.4375,286.6563 C41.5469,286.5 41.5781,286.3125 41.5781,285.8906 L41.5781,284.4688 C41.5781,284.0313 41.5625,283.9063 41.4688,283.75 C41.3125,283.4844 41.0313,283.3438 40.7344,283.3438 C40.4375,283.3438 40.2344,283.4375 40.0156,283.75 L39.8438,283.6719 Z " fill="#000000"/><text fill="#000000" font-family="sans-serif" font-size="14" lengthAdjust="spacing" textLength="77" x="51.5" y="292.8467">Anpassung</text><line style="stroke:#181818;stroke-width:0.5;" x1="23.5" x2="130.5" y1="304" y2="304"/><line style="stroke:#181818;stroke-width:0.5;" x1="23.5" x2="130.5" y1="312" y2="312"/></g><!--reverse link Basistyp to Aufbau--><g id="link_Basistyp_Aufbau"><path codeLine="2" d="M92.8395,106.9928 C92.3395,124.6508 92.162,130.941 91.66,148.678 " fill="none" id="Basistyp-backto-Aufbau" style="stroke:#181818;stroke-width:1.0;"/><polygon fill="none" points="93.349,89,86.8419,106.823,98.8371,107.1626,93.349,89" style="stroke:#181818;stroke-width:1.0;"/></g><!--reverse link Basistyp to Erweiterung--><g id="link_Basistyp_Erweiterung"><path codeLine="6" d="M120.4847,104.0436 C131.7827,120.4696 136.744,128.333 149,149 C174.141,191.395 200.258,242.728 214.69,271.8515 " fill="none" id="Basistyp-backto-Erweiterung" style="stroke:#181818;stroke-width:1.0;"/><polygon fill="none" points="110.284,89.213,115.5411,107.4438,125.4282,100.6434,110.284,89.213" style="stroke:#181818;stroke-width:1.0;"/></g><!--reverse link Aufbau to Anpassung--><g id="link_Aufbau_Anpassung"><path codeLine="7" d="M86.2649,214.9247 C83.7896,236.3177 82.1913,250.132 79.704,271.6297 " fill="none" id="Aufbau-backto-Anpassung" style="stroke:#181818;stroke-width:1.0;"/><polygon fill="none" points="88.3338,197.044,80.3047,214.2351,92.2251,215.6143,88.3338,197.044" style="stroke:#181818;stroke-width:1.0;"/></g><!--SRC=[AqXCpavCJrLGSifCoidCByb8pLPIgEPIK71ABCuiBgaiKB2fqTLLS2nDIqeivQhbuYh0r51SbbfKdfgNabg4JQihK2wp9BMeD2yTA0Sn26feNa5YSJ58l1O0]--></g></svg>