<?xml version="1.0" encoding="windows-1252" standalone="no"?>
<svg xmlns="http://www.w3.org/2000/svg" xmlns:xlink="http://www.w3.org/1999/xlink" contentStyleType="text/css" height="243px" preserveAspectRatio="none" style="width:254px;height:243px;background:#FFFFFF;" version="1.1" viewBox="0 0 254 243" width="254px" zoomAndPan="magnify"><defs/><g><rect fill="#FFFFFF" height="136.5313" style="stroke:#181818;stroke-width:1.0;" width="10" x="77.5" y="46.2969"/><rect fill="#FFFFFF" height="95.3984" style="stroke:#181818;stroke-width:1.0;" width="10" x="82.5" y="67.4297"/><rect fill="#FFFFFF" height="95.3984" style="stroke:#181818;stroke-width:1.0;" width="10" x="175.5" y="67.4297"/><line style="stroke:#181818;stroke-width:0.5;stroke-dasharray:5.0,5.0;" x1="82" x2="82" y1="36.2969" y2="207.8281"/><line style="stroke:#181818;stroke-width:0.5;stroke-dasharray:5.0,5.0;" x1="180" x2="180" y1="36.2969" y2="207.8281"/><rect fill="#E2E2F0" height="30.2969" rx="2.5" ry="2.5" style="stroke:#181818;stroke-width:0.5;" width="55" x="55" y="5"/><text fill="#000000" font-family="sans-serif" font-size="14" lengthAdjust="spacing" textLength="41" x="62" y="24.9951">client</text><rect fill="#E2E2F0" height="30.2969" rx="2.5" ry="2.5" style="stroke:#181818;stroke-width:0.5;" width="55" x="55" y="206.8281"/><text fill="#000000" font-family="sans-serif" font-size="14" lengthAdjust="spacing" textLength="41" x="62" y="226.8232">client</text><rect fill="#E2E2F0" height="30.2969" rx="2.5" ry="2.5" style="stroke:#181818;stroke-width:0.5;" width="59" x="151" y="5"/><text fill="#000000" font-family="sans-serif" font-size="14" lengthAdjust="spacing" textLength="45" x="158" y="24.9951">server</text><rect fill="#E2E2F0" height="30.2969" rx="2.5" ry="2.5" style="stroke:#181818;stroke-width:0.5;" width="59" x="151" y="206.8281"/><text fill="#000000" font-family="sans-serif" font-size="14" lengthAdjust="spacing" textLength="45" x="158" y="226.8232">server</text><rect fill="#FFFFFF" height="136.5313" style="stroke:#181818;stroke-width:1.0;" width="10" x="77.5" y="46.2969"/><rect fill="#FFFFFF" height="95.3984" style="stroke:#181818;stroke-width:1.0;" width="10" x="82.5" y="67.4297"/><rect fill="#FFFFFF" height="95.3984" style="stroke:#181818;stroke-width:1.0;" width="10" x="175.5" y="67.4297"/><polygon fill="#181818" points="163.5,63.4297,173.5,67.4297,163.5,71.4297,167.5,67.4297" style="stroke:#181818;stroke-width:1.0;"/><line style="stroke:#181818;stroke-width:1.0;" x1="92.5" x2="169.5" y1="67.4297" y2="67.4297"/><text fill="#000000" font-family="sans-serif" font-size="13" lengthAdjust="spacing" textLength="49" x="99.5" y="62.3638">request</text><polygon fill="#FEFFDD" points="15,80.4297,150,80.4297,160,91.4297,150,103.4297,15,103.4297,5,91.4297,15,80.4297" style="stroke:#181818;stroke-width:0.5;"/><text fill="#000000" font-family="sans-serif" font-size="13" lengthAdjust="spacing" textLength="131" x="17" y="96.4966">waiting for response</text><polygon fill="#FEFFDD" points="117,113.5625,243,113.5625,253,124.5625,243,136.5625,117,136.5625,107,124.5625,117,113.5625" style="stroke:#181818;stroke-width:0.5;"/><text fill="#000000" font-family="sans-serif" font-size="13" lengthAdjust="spacing" textLength="122" x="119" y="129.6294">processing request</text><polygon fill="#181818" points="98.5,158.8281,88.5,162.8281,98.5,166.8281,94.5,162.8281" style="stroke:#181818;stroke-width:1.0;"/><line style="stroke:#181818;stroke-width:1.0;" x1="92.5" x2="179.5" y1="162.8281" y2="162.8281"/><text fill="#000000" font-family="sans-serif" font-size="13" lengthAdjust="spacing" textLength="59" x="104.5" y="157.7622">response</text><line style="stroke:#181818;stroke-width:1.0;" x1="87.5" x2="129.5" y1="181.8281" y2="181.8281"/><line style="stroke:#181818;stroke-width:1.0;" x1="129.5" x2="129.5" y1="181.8281" y2="194.8281"/><line style="stroke:#181818;stroke-width:1.0;" x1="82.5" x2="129.5" y1="194.8281" y2="194.8281"/><polygon fill="#181818" points="92.5,190.8281,82.5,194.8281,92.5,198.8281,88.5,194.8281" style="stroke:#181818;stroke-width:1.0;"/><!--SRC=[PO_H3OCm34J_FOKNO848TPSe73HI5LFRmFe51Qe8lYoVdk_ECNbUeuFJ9wCuKPtSlTYWAvG3AxuBp2dUsFzUIQ9taNsJuweYWRUOFPU9Hz7TnsOfXfQhfu5dbGIp0xtYhYfzrrOvBGRSqnlb-SkfF9WV]--></g></svg>